<?xml version="1.0" encoding="utf-8"?>
<svg xmlns="http://www.w3.org/2000/svg" xmlns:xlink="http://www.w3.org/1999/xlink" width="600" height="400" viewBox="0 0 600 400">
<defs>
  <clipPath id="clip00">
    <rect x="0" y="0" width="600" height="400"/>
  </clipPath>
</defs>
<polygon clip-path="url(#clip00)" points="
0,400 600,400 600,0 0,0 
  " fill="#ffffff" fill-opacity="1"/>
<defs>
  <clipPath id="clip01">
    <rect x="120" y="0" width="421" height="400"/>
  </clipPath>
</defs>
<polygon clip-path="url(#clip00)" points="
55.1181,372.441 592.126,372.441 592.126,7.87402 55.1181,7.87402 
  " fill="#ffffff" fill-opacity="1"/>
<defs>
  <clipPath id="clip02">
    <rect x="55" y="7" width="538" height="366"/>
  </clipPath>
</defs>
<polyline clip-path="url(#clip02)" style="stroke:#000000; stroke-width:0.5; stroke-opacity:0.1; fill:none" points="
  104.855,366.972 104.855,13.3425 
  "/>
<polyline clip-path="url(#clip02)" style="stroke:#000000; stroke-width:0.5; stroke-opacity:0.1; fill:none" points="
  224.693,366.972 224.693,13.3425 
  "/>
<polyline clip-path="url(#clip02)" style="stroke:#000000; stroke-width:0.5; stroke-opacity:0.1; fill:none" points="
  344.531,366.972 344.531,13.3425 
  "/>
<polyline clip-path="url(#clip02)" style="stroke:#000000; stroke-width:0.5; stroke-opacity:0.1; fill:none" points="
  464.368,366.972 464.368,13.3425 
  "/>
<polyline clip-path="url(#clip02)" style="stroke:#000000; stroke-width:0.5; stroke-opacity:0.1; fill:none" points="
  584.206,366.972 584.206,13.3425 
  "/>
<polyline clip-path="url(#clip02)" style="stroke:#000000; stroke-width:0.5; stroke-opacity:0.1; fill:none" points="
  63.1732,269.714 584.071,269.714 
  "/>
<polyline clip-path="url(#clip02)" style="stroke:#000000; stroke-width:0.5; stroke-opacity:0.1; fill:none" points="
  63.1732,154.765 584.071,154.765 
  "/>
<polyline clip-path="url(#clip02)" style="stroke:#000000; stroke-width:0.5; stroke-opacity:0.1; fill:none" points="
  63.1732,39.8162 584.071,39.8162 
  "/>
<polyline clip-path="url(#clip00)" style="stroke:#000000; stroke-width:1; stroke-opacity:1; fill:none" points="
  55.1181,372.441 592.126,372.441 
  "/>
<polyline clip-path="url(#clip00)" style="stroke:#000000; stroke-width:1; stroke-opacity:1; fill:none" points="
  104.855,372.441 104.855,366.972 
  "/>
<polyline clip-path="url(#clip00)" style="stroke:#000000; stroke-width:1; stroke-opacity:1; fill:none" points="
  224.693,372.441 224.693,366.972 
  "/>
<polyline clip-path="url(#clip00)" style="stroke:#000000; stroke-width:1; stroke-opacity:1; fill:none" points="
  344.531,372.441 344.531,366.972 
  "/>
<polyline clip-path="url(#clip00)" style="stroke:#000000; stroke-width:1; stroke-opacity:1; fill:none" points="
  464.368,372.441 464.368,366.972 
  "/>
<polyline clip-path="url(#clip00)" style="stroke:#000000; stroke-width:1; stroke-opacity:1; fill:none" points="
  584.206,372.441 584.206,366.972 
  "/>
<polyline clip-path="url(#clip00)" style="stroke:#000000; stroke-width:1; stroke-opacity:1; fill:none" points="
  55.1181,372.441 55.1181,7.87402 
  "/>
<polyline clip-path="url(#clip00)" style="stroke:#000000; stroke-width:1; stroke-opacity:1; fill:none" points="
  55.1181,269.714 63.1732,269.714 
  "/>
<polyline clip-path="url(#clip00)" style="stroke:#000000; stroke-width:1; stroke-opacity:1; fill:none" points="
  55.1181,154.765 63.1732,154.765 
  "/>
<polyline clip-path="url(#clip00)" style="stroke:#000000; stroke-width:1; stroke-opacity:1; fill:none" points="
  55.1181,39.8162 63.1732,39.8162 
  "/>
<g clip-path="url(#clip00)">
<text style="fill:#000000; fill-opacity:1; font-family:Arial,Helvetica Neue,Helvetica,sans-serif; font-size:12; text-anchor:middle;" transform="rotate(0, 104.855, 386.241)" x="104.855" y="386.241">4</text>
</g>
<g clip-path="url(#clip00)">
<text style="fill:#000000; fill-opacity:1; font-family:Arial,Helvetica Neue,Helvetica,sans-serif; font-size:12; text-anchor:middle;" transform="rotate(0, 224.693, 386.241)" x="224.693" y="386.241">5</text>
</g>
<g clip-path="url(#clip00)">
<text style="fill:#000000; fill-opacity:1; font-family:Arial,Helvetica Neue,Helvetica,sans-serif; font-size:12; text-anchor:middle;" transform="rotate(0, 344.531, 386.241)" x="344.531" y="386.241">6</text>
</g>
<g clip-path="url(#clip00)">
<text style="fill:#000000; fill-opacity:1; font-family:Arial,Helvetica Neue,Helvetica,sans-serif; font-size:12; text-anchor:middle;" transform="rotate(0, 464.368, 386.241)" x="464.368" y="386.241">7</text>
</g>
<g clip-path="url(#clip00)">
<text style="fill:#000000; fill-opacity:1; font-family:Arial,Helvetica Neue,Helvetica,sans-serif; font-size:12; text-anchor:middle;" transform="rotate(0, 584.206, 386.241)" x="584.206" y="386.241">8</text>
</g>
<g clip-path="url(#clip00)">
<text style="fill:#000000; fill-opacity:1; font-family:Arial,Helvetica Neue,Helvetica,sans-serif; font-size:12; text-anchor:end;" transform="rotate(0, 49.1181, 274.214)" x="49.1181" y="274.214">-12</text>
</g>
<g clip-path="url(#clip00)">
<text style="fill:#000000; fill-opacity:1; font-family:Arial,Helvetica Neue,Helvetica,sans-serif; font-size:12; text-anchor:end;" transform="rotate(0, 49.1181, 159.265)" x="49.1181" y="159.265">-10</text>
</g>
<g clip-path="url(#clip00)">
<text style="fill:#000000; fill-opacity:1; font-family:Arial,Helvetica Neue,Helvetica,sans-serif; font-size:12; text-anchor:end;" transform="rotate(0, 49.1181, 44.3162)" x="49.1181" y="44.3162">-8</text>
</g>
<g clip-path="url(#clip00)">
<text style="fill:#000000; fill-opacity:1; font-family:Arial,Helvetica Neue,Helvetica,sans-serif; font-size:16; text-anchor:middle;" transform="rotate(0, 323.622, 397.6)" x="323.622" y="397.6">dimension (log2)</text>
</g>
<g clip-path="url(#clip00)">
<text style="fill:#000000; fill-opacity:1; font-family:Arial,Helvetica Neue,Helvetica,sans-serif; font-size:16; text-anchor:middle;" transform="rotate(-90, 14.4, 190.157)" x="14.4" y="190.157">wall time (log2, incl tuning)</text>
</g>
<polyline clip-path="url(#clip02)" style="stroke:#009af9; stroke-width:1; stroke-opacity:1; fill:none" points="
  55.1181,372.441 81.7691,360.952 104.855,361.015 134.566,349.579 159.912,344.952 182.013,340.225 207.674,339.944 230.013,332.74 254.404,321.175 279.75,322.493 
  301.851,307.362 327.511,285.294 349.851,263.608 374.242,250.084 399.588,235.11 423.409,211.938 447.349,191.043 470.993,179.703 495.213,162.628 519.426,133.109 
  544.101,81.3884 567.93,93.4951 592.126,79.0845 
  "/>
<polyline clip-path="url(#clip02)" style="stroke:#e26f46; stroke-width:1; stroke-opacity:1; fill:none" points="
  55.1181,353.98 81.7691,224.518 104.855,223.166 134.566,221.18 159.912,327.79 182.013,217.803 207.674,324.118 230.013,302.355 254.404,303.414 279.75,267 
  301.851,257.355 327.511,246.907 349.851,214.226 374.242,205.59 399.588,193.939 423.409,170.351 447.349,161.785 470.993,139.795 495.213,116.25 519.426,71.0932 
  544.101,49.9043 567.93,27.5737 592.126,7.87402 
  "/>
<polygon clip-path="url(#clip00)" points="
73.1181,74.114 194.357,74.114 194.357,28.754 73.1181,28.754 
  " fill="#ffffff" fill-opacity="1"/>
<polyline clip-path="url(#clip00)" style="stroke:#000000; stroke-width:1; stroke-opacity:1; fill:none" points="
  73.1181,74.114 194.357,74.114 194.357,28.754 73.1181,28.754 73.1181,74.114 
  "/>
<polyline clip-path="url(#clip00)" style="stroke:#009af9; stroke-width:1; stroke-opacity:1; fill:none" points="
  79.1181,43.874 115.118,43.874 
  "/>
<g clip-path="url(#clip00)">
<text style="fill:#000000; fill-opacity:1; font-family:Arial,Helvetica Neue,Helvetica,sans-serif; font-size:12; text-anchor:start;" transform="rotate(0, 121.118, 48.374)" x="121.118" y="48.374">w/ gradient</text>
</g>
<polyline clip-path="url(#clip00)" style="stroke:#e26f46; stroke-width:1; stroke-opacity:1; fill:none" points="
  79.1181,58.994 115.118,58.994 
  "/>
<g clip-path="url(#clip00)">
<text style="fill:#000000; fill-opacity:1; font-family:Arial,Helvetica Neue,Helvetica,sans-serif; font-size:12; text-anchor:start;" transform="rotate(0, 121.118, 63.494)" x="121.118" y="63.494">ForwardDiff</text>
</g>
</svg>
